<svg xmlns="http://www.w3.org/2000/svg" viewBox="0 0 32 32"><defs><linearGradient id="g" x1="0" y1="0" x2="1" y2="1"><stop offset="0" stop-color="#c8285f"/><stop offset="1" stop-color="#2f63d8"/></linearGradient></defs><rect x="2" y="2" width="28" height="28" rx="8" fill="url(#g)"/><g stroke="#fff" stroke-width="1.6" stroke-linecap="round"><path d="M12 5v3M16 5v3M20 5v3M12 24v3M16 24v3M20 24v3M5 12h3M5 16h3M5 20h3M24 12h3M24 16h3M24 20h3"/></g><rect x="9" y="9" width="14" height="14" rx="2" fill="none" stroke="#fff" stroke-width="1.7"/><rect x="11.5" y="11.5" width="4" height="4" fill="#fff"/><rect x="16.5" y="11.5" width="4" height="4" fill="#fff" opacity=".65"/><rect x="11.5" y="16.5" width="9" height="4" fill="#fff" opacity=".4"/></svg>
